<svg xmlns:dc="http://purl.org/dc/elements/1.1/" xmlns:cc="http://creativecommons.org/ns#" xmlns:rdf="http://www.w3.org/1999/02/22-rdf-syntax-ns#" xmlns:svg="http://www.w3.org/2000/svg" xmlns="http://www.w3.org/2000/svg" xmlns:sodipodi="http://sodipodi.sourceforge.net/DTD/sodipodi-0.dtd" xmlns:inkscape="http://www.inkscape.org/namespaces/inkscape" version="1.1" x="0px" y="0px" viewBox="0 0 100 125"><g transform="translate(0,-952.36218)"><path style="font-size:medium;font-style:normal;font-variant:normal;font-weight:normal;font-stretch:normal;text-indent:0;text-align:start;text-decoration:none;line-height:normal;letter-spacing:normal;word-spacing:normal;text-transform:none;direction:ltr;block-progression:tb;writing-mode:lr-tb;text-anchor:start;baseline-shift:baseline;opacity:1;color:#000000;fill:#a3a2a7;fill-opacity:1;stroke:none;stroke-width:5;marker:none;visibility:visible;display:inline;overflow:visible;enable-background:accumulate;font-family:Sans;-inkscape-font-specification:Sans" d="M 50 5 C 25.182716 5 5 25.1827 5 50 C 5 74.8173 25.182716 95 50 95 C 74.817284 95 95 74.8173 95 50 C 95 25.1827 74.817284 5 50 5 z M 50 11 C 71.574644 11 89 28.42534 89 50 C 89 71.5746 71.574644 89 50 89 C 28.425356 89 11 71.5746 11 50 C 11 28.42534 28.425356 11 50 11 z M 73.65625 29.96875 A 3.0003 3.0003 0 0 0 71.875 30.875 L 40 62.75 L 28.125 50.875 A 3.0003 3.0003 0 1 0 23.875 55.09375 L 37.875 69.09375 A 3.0003 3.0003 0 0 0 42.125 69.09375 L 76.125 35.09375 A 3.0003 3.0003 0 0 0 73.65625 29.96875 z " transform="translate(0,952.36218)"/></g></svg>