<svg xmlns="http://www.w3.org/2000/svg" fill="#a3a2a7" xmlns:xlink="http://www.w3.org/1999/xlink" version="1.1" x="0px" y="0px" viewBox="0 0 100 125" style="enable-background:new 0 0 100 100;" xml:space="preserve"><g><path d="M63.5,89.7c7.6,0,13.7-5.9,14-13.5l1.6-49.4h7.5c1.1,0,2-0.9,2-2s-0.9-2-2-2H65.6v-4.5c0-4.4-3.6-8-8-8H42.4   c-4.4,0-8,3.6-8,8v4.5H13.3c-1.1,0-2,0.9-2,2s0.9,2,2,2h7.5l1.6,49.4c0.3,7.6,6.4,13.5,14,13.5H63.5z M38.4,18.3c0-2.2,1.8-4,4-4   h15.2c2.2,0,4,1.8,4,4v4.5H38.4V18.3z M26.5,76l-1.6-49.3h50.3L73.5,76c-0.2,5.4-4.6,9.7-10,9.7h-27C31.1,85.7,26.7,81.5,26.5,76z"/><path d="M50,72.9c1.1,0,2-0.9,2-2V41c0-1.1-0.9-2-2-2s-2,0.9-2,2v29.9C48,72,48.9,72.9,50,72.9z"/><path d="M38,72.9c1.1,0,2-0.9,2-2V41c0-1.1-0.9-2-2-2s-2,0.9-2,2v29.9C36,72,36.9,72.9,38,72.9z"/><path d="M62,72.9c1.1,0,2-0.9,2-2V41c0-1.1-0.9-2-2-2s-2,0.9-2,2v29.9C60,72,60.9,72.9,62,72.9z"/></g></svg>